<?xml version="1.0" encoding="UTF-8" standalone="no"?>
<svg
   xmlns:dc="http://purl.org/dc/elements/1.1/"
   xmlns:cc="http://creativecommons.org/ns#"
   xmlns:rdf="http://www.w3.org/1999/02/22-rdf-syntax-ns#"
   xmlns:svg="http://www.w3.org/2000/svg"
   xmlns="http://www.w3.org/2000/svg"
   xmlns:xlink="http://www.w3.org/1999/xlink"
   width="67.325005mm"
   height="37.326668mm"
   viewBox="0 0 67.325005 37.326668"
   version="1.1"
   id="svg8">
  <defs
     id="defs2">
    <rect
       x="2.6458333"
       y="2.6458333"
       width="50.940147"
       height="26.66297"
       id="rect847" />
    <rect
       x="2.6458333"
       y="2.6458333"
       width="119.0625"
       height="55.5625"
       id="rect837" />
    <rect
       x="2.6458333"
       y="2.6458333"
       width="89.310371"
       height="41.635269"
       id="rect847-7" />
    <rect
       x="2.6458333"
       y="2.6458333"
       width="47.625"
       height="21.166668"
       id="rect860" />
    <clipPath
       id="clipPath2281">
      <rect
         style="fill:#000000;fill-opacity:1;stroke:none;stroke-width:0.619028;stroke-linecap:butt;stroke-linejoin:round;stroke-miterlimit:4;stroke-dasharray:none;stroke-dashoffset:0;stroke-opacity:1;paint-order:normal"
         width="13"
         height="13"
         x="58.200001"
         y="4"
         id="rect3775" />
    </clipPath>
    <g
       id="g4750">
      <symbol
         overflow="visible"
         id="symbol9465">
        <path
           style="stroke:none"
           d=""
           id="path1212" />
      </symbol>
      <symbol
         overflow="visible"
         id="symbol2722">
        <path
           style="stroke:none"
           d="M 3.015625,-1.46875 C 3.015625,-0.5625 2.515625,0 1.984375,0 1.921875,0 1.25,0 0.890625,-0.578125 1.40625,-0.578125 1.53125,-0.875 1.53125,-1.140625 1.53125,-1.5 1.25,-1.6875 0.96875,-1.6875 c -0.21875,0 -0.5625,0.125 -0.5625,0.578125 0,0.734375 0.703125,1.328125 1.59375,1.328125 1.015625,0 1.75,-0.703125 1.859375,-1.4375 C 3.875,-1.3125 3.875,-1.328125 3.875,-1.671875 V -6.09375 C 3.875,-6.5 4,-6.5 4.640625,-6.5 v -0.3125 c -0.4375,0.03125 -0.828125,0.03125 -1.296875,0.03125 -0.40625,0 -1.296875,0 -1.671875,-0.03125 V -6.5 H 2.03125 c 0.984375,0 0.984375,0.125 0.984375,0.484375 z m 0,0"
           id="path5921" />
      </symbol>
    </g>
    <g
       id="g3539">
      <symbol
         overflow="visible"
         id="symbol5441">
        <path
           style="stroke:none"
           d=""
           id="path1335" />
      </symbol>
      <symbol
         overflow="visible"
         id="symbol9878">
        <path
           style="stroke:none"
           d="M 3.015625,-1.46875 C 3.015625,-0.5625 2.515625,0 1.984375,0 1.921875,0 1.25,0 0.890625,-0.578125 1.40625,-0.578125 1.53125,-0.875 1.53125,-1.140625 1.53125,-1.5 1.25,-1.6875 0.96875,-1.6875 c -0.21875,0 -0.5625,0.125 -0.5625,0.578125 0,0.734375 0.703125,1.328125 1.59375,1.328125 1.015625,0 1.75,-0.703125 1.859375,-1.4375 C 3.875,-1.3125 3.875,-1.328125 3.875,-1.671875 V -6.09375 C 3.875,-6.5 4,-6.5 4.640625,-6.5 v -0.3125 c -0.4375,0.03125 -0.828125,0.03125 -1.296875,0.03125 -0.40625,0 -1.296875,0 -1.671875,-0.03125 V -6.5 H 2.03125 c 0.984375,0 0.984375,0.125 0.984375,0.484375 z m 0,0"
           id="path5535" />
      </symbol>
    </g>
    <g
       id="g8165">
      <symbol
         overflow="visible"
         id="symbol7743">
        <path
           style="stroke:none"
           d=""
           id="path3187" />
      </symbol>
      <symbol
         overflow="visible"
         id="symbol693">
        <path
           style="stroke:none"
           d="M 3.015625,-1.46875 C 3.015625,-0.5625 2.515625,0 1.984375,0 1.921875,0 1.25,0 0.890625,-0.578125 1.40625,-0.578125 1.53125,-0.875 1.53125,-1.140625 1.53125,-1.5 1.25,-1.6875 0.96875,-1.6875 c -0.21875,0 -0.5625,0.125 -0.5625,0.578125 0,0.734375 0.703125,1.328125 1.59375,1.328125 1.015625,0 1.75,-0.703125 1.859375,-1.4375 C 3.875,-1.3125 3.875,-1.328125 3.875,-1.671875 V -6.09375 C 3.875,-6.5 4,-6.5 4.640625,-6.5 v -0.3125 c -0.4375,0.03125 -0.828125,0.03125 -1.296875,0.03125 -0.40625,0 -1.296875,0 -1.671875,-0.03125 V -6.5 H 2.03125 c 0.984375,0 0.984375,0.125 0.984375,0.484375 z m 0,0"
           id="path977" />
      </symbol>
    </g>
    <g
       id="g2280">
      <symbol
         overflow="visible"
         id="symbol1608">
        <path
           style="stroke:none"
           d=""
           id="path1759" />
      </symbol>
      <symbol
         overflow="visible"
         id="symbol5950">
        <path
           style="stroke:none"
           d="M 5.390625,-6.078125 C 5.46875,-6.40625 5.5,-6.5 6.046875,-6.5 c 0.15625,0 0.265625,0 0.265625,-0.1875 0,-0.09375 -0.0625,-0.125 -0.140625,-0.125 -0.25,0 -0.859375,0.03125 -1.109375,0.03125 -0.328125,0 -1.140625,-0.03125 -1.46875,-0.03125 -0.078125,0 -0.203125,0 -0.203125,0.203125 C 3.390625,-6.5 3.46875,-6.5 3.734375,-6.5 c 0.21875,0 0.328125,0 0.578125,0.015625 0.234375,0.03125 0.296875,0.0625 0.296875,0.203125 0,0.0625 -0.015625,0.125 -0.03125,0.203125 L 3.421875,-1.5 C 3.1875,-0.53125 2.515625,0 2,0 1.734375,0 1.203125,-0.09375 1.046875,-0.625 c 0.03125,0.015625 0.09375,0.015625 0.125,0.015625 0.390625,0 0.640625,-0.34375 0.640625,-0.640625 0,-0.3125 -0.265625,-0.421875 -0.4375,-0.421875 -0.171875,0 -0.671875,0.125 -0.671875,0.796875 0,0.625 0.53125,1.09375 1.328125,1.09375 0.90625,0 1.953125,-0.65625 2.203125,-1.640625 z m 0,0"
           id="path4459" />
      </symbol>
    </g>
    <g
       id="g1782">
      <symbol
         overflow="visible"
         id="symbol4030">
        <path
           style="stroke:none"
           d=""
           id="path6471" />
      </symbol>
      <symbol
         overflow="visible"
         id="symbol3329">
        <path
           style="stroke:none"
           d="M 5.390625,-6.078125 C 5.46875,-6.40625 5.5,-6.5 6.046875,-6.5 c 0.15625,0 0.265625,0 0.265625,-0.1875 0,-0.09375 -0.0625,-0.125 -0.140625,-0.125 -0.25,0 -0.859375,0.03125 -1.109375,0.03125 -0.328125,0 -1.140625,-0.03125 -1.46875,-0.03125 -0.078125,0 -0.203125,0 -0.203125,0.203125 C 3.390625,-6.5 3.46875,-6.5 3.734375,-6.5 c 0.21875,0 0.328125,0 0.578125,0.015625 0.234375,0.03125 0.296875,0.0625 0.296875,0.203125 0,0.0625 -0.015625,0.125 -0.03125,0.203125 L 3.421875,-1.5 C 3.1875,-0.53125 2.515625,0 2,0 1.734375,0 1.203125,-0.09375 1.046875,-0.625 c 0.03125,0.015625 0.09375,0.015625 0.125,0.015625 0.390625,0 0.640625,-0.34375 0.640625,-0.640625 0,-0.3125 -0.265625,-0.421875 -0.4375,-0.421875 -0.171875,0 -0.671875,0.125 -0.671875,0.796875 0,0.625 0.53125,1.09375 1.328125,1.09375 0.90625,0 1.953125,-0.65625 2.203125,-1.640625 z m 0,0"
           id="path3731" />
      </symbol>
    </g>
    <g
       id="g3697">
      <symbol
         overflow="visible"
         id="symbol682">
        <path
           style="stroke:none"
           d=""
           id="path3571" />
      </symbol>
      <symbol
         overflow="visible"
         id="symbol6071">
        <path
           style="stroke:none"
           d="M 4.640625,-6.5 V -6.8125 L 3.34375,-6.78125 c -0.40625,0 -1.296875,0 -1.671875,-0.03125 V -6.5 H 2.03125 c 0.984375,0 0.984375,0.125 0.984375,0.484375 V -1.46875 C 3.015625,-0.5625 2.515625,0 1.984375,0 1.921875,0 1.25,0 0.890625,-0.578125 1.40625,-0.578125 1.53125,-0.875 1.53125,-1.140625 1.53125,-1.5 1.25,-1.6875 0.96875,-1.6875 c -0.21875,0 -0.5625,0.125 -0.5625,0.578125 0,0.734375 0.703125,1.328125 1.59375,1.328125 1.015625,0 1.75,-0.703125 1.859375,-1.4375 C 3.875,-1.3125 3.875,-1.328125 3.875,-1.671875 V -6.09375 C 3.875,-6.5 4,-6.5 4.640625,-6.5 Z m 0,0"
           id="path1148" />
      </symbol>
    </g>
    <g
       id="g7053">
      <symbol
         overflow="visible"
         id="symbol4678">
        <path
           style="stroke:none"
           d=""
           id="path4689" />
      </symbol>
      <symbol
         overflow="visible"
         id="symbol8807">
        <path
           style="stroke:none"
           d="M 5.390625,-6.078125 C 5.46875,-6.40625 5.5,-6.5 6.046875,-6.5 c 0.15625,0 0.265625,0 0.265625,-0.1875 0,-0.09375 -0.0625,-0.125 -0.140625,-0.125 -0.25,0 -0.859375,0.03125 -1.109375,0.03125 -0.328125,0 -1.140625,-0.03125 -1.46875,-0.03125 -0.078125,0 -0.203125,0 -0.203125,0.203125 C 3.390625,-6.5 3.46875,-6.5 3.734375,-6.5 c 0.21875,0 0.328125,0 0.578125,0.015625 0.234375,0.03125 0.296875,0.0625 0.296875,0.203125 0,0.0625 -0.015625,0.125 -0.03125,0.203125 L 3.421875,-1.5 C 3.1875,-0.53125 2.515625,0 2,0 1.734375,0 1.203125,-0.09375 1.046875,-0.625 c 0.03125,0.015625 0.09375,0.015625 0.125,0.015625 0.390625,0 0.640625,-0.34375 0.640625,-0.640625 0,-0.3125 -0.265625,-0.421875 -0.4375,-0.421875 -0.171875,0 -0.671875,0.125 -0.671875,0.796875 0,0.625 0.53125,1.09375 1.328125,1.09375 0.90625,0 1.953125,-0.65625 2.203125,-1.640625 z m 0,0"
           id="path2696" />
      </symbol>
    </g>
  </defs>
  <metadata
     id="metadata5">
    <rdf:RDF>
      <cc:Work
         rdf:about="">
        <dc:format>image/svg+xml</dc:format>
        <dc:type
           rdf:resource="http://purl.org/dc/dcmitype/StillImage" />
        <dc:title></dc:title>
      </cc:Work>
    </rdf:RDF>
  </metadata>
  <g
     id="layer1"
     transform="translate(-3.875,-3.875)">
    <text
       xml:space="preserve"
       id="text835"
       style="font-style:normal;font-weight:normal;font-size:22.5778px;line-height:1.25;font-family:sans-serif;white-space:pre;shape-inside:url(#rect837);fill:#000000;fill-opacity:1;stroke:none;" />
    <text
       xml:space="preserve"
       style="font-style:normal;font-weight:normal;font-size:10.5833px;line-height:1.25;font-family:sans-serif;fill:#000000;fill-opacity:1;stroke:none;stroke-width:0.264583"
       x="5.2916665"
       y="13.229166"
       id="text843"><tspan
         id="tspan841"
         x="5.2916665"
         y="13.229166"
         style="stroke-width:0.264583" /></text>
    <text
       xml:space="preserve"
       id="text845"
       style="font-style:normal;font-variant:normal;font-weight:bold;font-stretch:semi-condensed;font-size:22.5778px;line-height:1;font-family:'DejaVu Sans';-inkscape-font-specification:'DejaVu Sans, Bold Semi-Condensed';font-variant-ligatures:normal;font-variant-caps:normal;font-variant-numeric:normal;font-variant-east-asian:normal;white-space:pre;shape-inside:url(#rect847);fill:#c80e2e;fill-opacity:1;stroke:#000000;stroke-width:0.25;stroke-linecap:butt;stroke-linejoin:round;stroke-miterlimit:4;stroke-dasharray:none;stroke-dashoffset:0;stroke-opacity:1;paint-order:normal;"
       transform="translate(-0.10169419,0.95664022)"><tspan
         x="2.6464844"
         y="19.800321"><tspan
           style="font-style:normal;font-variant:normal;font-weight:bold;font-stretch:semi-condensed;font-size:22.5778px;font-family:'DejaVu Sans';-inkscape-font-specification:'DejaVu Sans, Bold Semi-Condensed';font-variant-ligatures:normal;font-variant-caps:normal;font-variant-numeric:normal;font-variant-east-asian:normal;fill:#c80e2e;fill-opacity:1;stroke:#000000;stroke-width:0.25;stroke-linecap:butt;stroke-linejoin:round;stroke-miterlimit:4;stroke-dasharray:none;stroke-dashoffset:0;stroke-opacity:1;paint-order:normal">SPN</tspan></tspan></text>
    <text
       xml:space="preserve"
       id="text845-0"
       style="font-style:oblique;font-variant:normal;font-weight:bold;font-stretch:semi-condensed;font-size:22.5778px;line-height:1;font-family:'DejaVu Sans';-inkscape-font-specification:'DejaVu Sans, Bold Oblique Semi-Condensed';font-variant-ligatures:normal;font-variant-caps:normal;font-variant-numeric:normal;font-variant-east-asian:normal;white-space:pre;shape-inside:url(#rect847-7);fill:#014884;fill-opacity:1;stroke:#000000;stroke-width:0.25;stroke-linejoin:round;stroke-miterlimit:4;stroke-dasharray:none;stroke-opacity:1;"
       transform="translate(0.92356727,20.95664)"><tspan
         x="2.6464844"
         y="19.800321"><tspan
           style="font-style:oblique;font-variant:normal;font-weight:bold;font-stretch:semi-condensed;font-size:22.5778px;font-family:'DejaVu Sans';-inkscape-font-specification:'DejaVu Sans, Bold Oblique Semi-Condensed';font-variant-ligatures:normal;font-variant-caps:normal;font-variant-numeric:normal;font-variant-east-asian:normal;fill:#014884;fill-opacity:1;stroke:#000000;stroke-width:0.25;stroke-linejoin:round;stroke-miterlimit:4;stroke-dasharray:none;stroke-opacity:1">FLOW</tspan></tspan></text>
    <circle
       style="fill:none;fill-opacity:1;stroke:#000000;stroke-width:0.6;stroke-linecap:butt;stroke-linejoin:round;stroke-miterlimit:4;stroke-dasharray:none;stroke-dashoffset:0;stroke-opacity:1;paint-order:normal"
       id="path907"
       cx="53.524651"
       cy="8.0246515"
       r="3.7746513" />
    <path
       style="fill:#000000;fill-opacity:1;stroke:none;stroke-width:0.264583px;stroke-linecap:butt;stroke-linejoin:miter;stroke-opacity:1"
       d="m 50.876963,7.7548843 h 2.38125 V 5.3736337 h 0.529167 v 2.3812506 h 2.38125 V 8.2840502 H 53.78738 V 10.665301 H 53.258213 V 8.2840502 h -2.38125 z"
       id="path939" />
    <circle
       style="fill:none;fill-opacity:1;stroke:#000000;stroke-width:0.6;stroke-linecap:butt;stroke-linejoin:round;stroke-miterlimit:4;stroke-dasharray:none;stroke-dashoffset:0;stroke-opacity:1;paint-order:normal"
       id="path907-2"
       cx="53.524651"
       cy="17.024651"
       r="3.7746513" />
    <path
       style="fill:#000000;fill-opacity:1;stroke:none;stroke-width:0.264583px;stroke-linecap:butt;stroke-linejoin:miter;stroke-opacity:1"
       d="m 51.839,14.961493 1.683798,1.683798 1.683799,-1.683799 0.374177,0.374178 -1.683798,1.683798 1.683798,1.683798 -0.374177,0.374177 -1.683798,-1.683798 -1.683799,1.683799 -0.374177,-0.374178 1.683798,-1.683798 -1.683798,-1.683798 z"
       id="path939-4" />
    <path
       style="fill:none;fill-opacity:1;stroke:#000000;stroke-width:0.6;stroke-linecap:butt;stroke-linejoin:round;stroke-miterlimit:4;stroke-dasharray:none;stroke-dashoffset:0;stroke-opacity:1;paint-order:normal"
       d="m 58.2,15.1429 v -0.0607 c 0.0688,-0.0062 0.1376,-0.0133 0.2064,-0.0214 0.0687,-0.0081 0.1375,-0.0173 0.2063,-0.0279 0.0688,-0.0105 0.1376,-0.0224 0.2063,-0.0359 0.0688,-0.0135 0.1376,-0.0286 0.2064,-0.0457 0.0688,-0.0171 0.1376,-0.0362 0.2063,-0.0576 0.0688,-0.0214 0.1376,-0.0452 0.2064,-0.0717 0.0688,-0.0266 0.1376,-0.0559 0.2063,-0.0884 0.0688,-0.0326 0.1376,-0.0683 0.2064,-0.1077 0.0688,-0.0393 0.1376,-0.0824 0.2063,-0.1295 0.0688,-0.0472 0.1376,-0.0984 0.2064,-0.1542 0.0688,-0.0557 0.1376,-0.116 0.2063,-0.1812 0.0688,-0.0652 0.1376,-0.1352 0.2064,-0.2105 0.0688,-0.0752 0.1376,-0.1556 0.2063,-0.2414 0.0688,-0.0858 0.1376,-0.177 0.2064,-0.2736 0.0688,-0.0966 0.1376,-0.1985 0.2063,-0.3058 0.0688,-0.1073 0.1376,-0.2199 0.2064,-0.3375 0.0688,-0.1176 0.1376,-0.2402 0.2063,-0.3673 0.0688,-0.1271 0.1376,-0.2587 0.2064,-0.394 0.0688,-0.1353 0.1376,-0.2744 0.2063,-0.4163 0.0688,-0.1419 0.1376,-0.2866 0.2064,-0.433 0.0688,-0.1463 0.1376,-0.2943 0.2063,-0.4426 0.0688,-0.1483 0.1376,-0.2969 0.2064,-0.4444 0.0688,-0.1474 0.1375,-0.2936 0.2063,-0.437 0.0688,-0.14342 0.1376,-0.28404 0.2064,-0.42021 0.0688,-0.13616 0.1375,-0.26787 0.2063,-0.39348 0.0688,-0.12561 0.1376,-0.24513 0.2064,-0.35698 0.0688,-0.11185 0.1375,-0.21604 0.2063,-0.31115 0.0688,-0.09511 0.1376,-0.18115 0.2064,-0.2569 0.0688,-0.07576 0.1375,-0.14123 0.2063,-0.19549 0.0688,-0.05425 0.1376,-0.09728 0.2064,-0.12848 0.0688,-0.03119 0.1375,-0.05053 0.2063,-0.05775 0.0688,-0.00722 0.1376,-0.00231 0.2064,0.01465 0.0688,0.01697 0.1375,0.04599 0.2063,0.08664 0.0688,0.04066 0.1376,0.09294 0.2064,0.1561 0.0688,0.06316 0.1375,0.13719 0.2063,0.22105 0.0688,0.08386 0.1376,0.17755 0.2064,0.27976 0.0688,0.10221 0.1375,0.21295 0.2063,0.33073 0.0688,0.11778 0.1376,0.24261 0.2064,0.37288 0.0688,0.13026 0.1375,0.26597 0.2063,0.40546 0.0688,0.1395 0.1376,0.28277 0.2064,0.42817 0.0688,0.1454 0.1375,0.293 0.2063,0.4411 0.0688,0.1482 0.1376,0.2969 0.2064,0.4447 0.0688,0.1479 0.1375,0.2948 0.2063,0.4397 0.0688,0.1448 0.1376,0.2875 0.2064,0.427 0.0687,0.1394 0.1375,0.2757 0.2063,0.4079 0.0688,0.1321 0.1376,0.2602 0.2064,0.3836 0.0687,0.1234 0.1375,0.2421 0.2063,0.3556 0.0688,0.1135 0.1376,0.2219 0.2064,0.3249 0.0687,0.103 0.1375,0.2006 0.2063,0.2928 0.0688,0.0922 0.1376,0.179 0.2064,0.2605 0.0687,0.0815 0.1375,0.1577 0.2063,0.2288 0.0688,0.0711 0.1376,0.1371 0.2064,0.1984 0.0687,0.0613 0.1375,0.1178 0.2063,0.17 0.0688,0.0522 0.1376,0.1 0.2064,0.1439 0.0687,0.0439 0.1375,0.0839 0.2063,0.1204 0.0688,0.0365 0.1376,0.0695 0.2064,0.0995 0.0687,0.03 0.1375,0.057 0.2063,0.0814 0.0688,0.0244 0.1376,0.0462 0.2064,0.0657 0.0687,0.0196 0.1375,0.037 0.2063,0.0526 0.0688,0.0155 0.1376,0.0293 0.2064,0.0415 0.0687,0.0122 0.1375,0.0229 0.2063,0.0324 0.0688,0.0095 0.1376,0.0178 0.2064,0.0251 0.0687,0.0073 0.1375,0.0137 0.2063,0.0192 v 0.0536"
       title="(1/sqrt(2*pi)) * exp(-0.5 * (x**2))"
       clip-path="url(#clipPath2281)"
       id="path3799"
       transform="translate(0,0.11600857)" />
    <g
       transform="matrix(0.85333333,0,0,0.85333333,-16.371508,-49.544224)"
       id="g4848">
      <g
         id="g6807">
        <g
           transform="translate(-1.4896413,-3.1455467)"
           id="g4957">
          <g
             id="g9733">
            <g
               style="fill:#000000;fill-opacity:1"
               id="g5128">
              <use
                 xlink:href="#symbol8807"
                 x="91.925003"
                 y="81.962997"
                 id="use2053"
                 width="100%"
                 height="100%" />
            </g>
          </g>
        </g>
      </g>
    </g>
  </g>
</svg>
